<svg xmlns="http://www.w3.org/2000/svg" xmlns:xlink="http://www.w3.org/1999/xlink" width="60" height="60" viewBox="0 0 60 60">
  <defs>
    <clipPath id="clip-path">
      <rect id="Rectangle_294" data-name="Rectangle 294" width="21.425" height="30" fill="#142d5d"/>
    </clipPath>
  </defs>
  <g id="Group_207" data-name="Group 207" transform="translate(-234 -788)">
    <path id="Path_23" data-name="Path 23" d="M30,0A30,30,0,1,1,0,30,30,30,0,0,1,30,0Z" transform="translate(234 788)" fill="#dee3eb"/>
    <g id="Group_176" data-name="Group 176" transform="translate(254 803)">
      <g id="Group_175" data-name="Group 175" clip-path="url(#clip-path)">
        <path id="Path_313" data-name="Path 313" d="M21.111,4.6a1.073,1.073,0,0,0-.758-.314H15.961a5.356,5.356,0,0,0-10.5,0H1.071A1.07,1.07,0,0,0,0,5.361V28.929A1.07,1.07,0,0,0,1.071,30H20.353a1.07,1.07,0,0,0,1.071-1.071V5.361a1.074,1.074,0,0,0-.313-.757M8.439,3.089A3.215,3.215,0,1,1,7.5,5.361a3.213,3.213,0,0,1,.941-2.272m-.18,21.244L6.116,26.475a1.07,1.07,0,0,1-1.51,0L3.534,25.4a1.071,1.071,0,0,1,1.511-1.51l.31.31,1.382-1.392.011.01a1.072,1.072,0,0,1,1.511,1.511m0-5.356L6.116,21.119a1.07,1.07,0,0,1-1.51,0L3.534,20.048a1.072,1.072,0,0,1,1.511-1.511l.31.311,1.382-1.393.011.011a1.072,1.072,0,0,1,1.511,1.511m0-5.356L6.116,15.763a1.069,1.069,0,0,1-1.51,0L3.534,14.692a1.072,1.072,0,0,1,1.511-1.511l.31.311L6.737,12.1l.011.011a1.072,1.072,0,0,1,1.511,1.511m9.808,11.558a1.07,1.07,0,0,1-.928.536H10.712a1.071,1.071,0,1,1,0-2.142h6.427a1.071,1.071,0,0,1,.928,1.606m0-5.356a1.07,1.07,0,0,1-.928.536H10.712a1.071,1.071,0,0,1,0-2.143h6.427a1.072,1.072,0,0,1,.928,1.607m0-5.356a1.072,1.072,0,0,1-.928.536H10.712a1.072,1.072,0,1,1,0-2.143h6.427a1.072,1.072,0,0,1,.928,1.607" fill="#142d5d"/>
        <path id="Path_314" data-name="Path 314" d="M10.519,7.194a1.071,1.071,0,0,0,1.51-1.51l-.749-.761V4.291a1.071,1.071,0,0,0-2.143,0V5.362a1.07,1.07,0,0,0,.311.761Z" fill="#142d5d"/>
      </g>
    </g>
  </g>
</svg>
