<svg xmlns="http://www.w3.org/2000/svg" xmlns:xlink="http://www.w3.org/1999/xlink" width="60" height="60" viewBox="0 0 60 60">
  <defs>
    <clipPath id="clip-path">
      <rect id="Rectangle_301" data-name="Rectangle 301" width="27" height="30" fill="none"/>
    </clipPath>
  </defs>
  <g id="Group_201" data-name="Group 201" transform="translate(-68 -130)">
    <path id="Path_26" data-name="Path 26" d="M30,0A30,30,0,1,1,0,30,30,30,0,0,1,30,0Z" transform="translate(68 130)" fill="#dee3eb"/>
    <g id="Group_184" data-name="Group 184" transform="translate(85 145)">
      <g id="Group_183" data-name="Group 183" clip-path="url(#clip-path)">
        <path id="Path_319" data-name="Path 319" d="M16.643,9.066a.891.891,0,0,0-1.3,0l-2.693,2.693-1.01-1.01a.922.922,0,0,0-1.3,1.305l1.641,1.641a1.032,1.032,0,0,0,.673.252.959.959,0,0,0,.674-.252l3.324-3.324a.891.891,0,0,0,0-1.305" fill="#142d5d"/>
        <path id="Path_320" data-name="Path 320" d="M19.787,0H7.215C2.655,0,0,2.67,0,7.245V22.74C0,27.39,2.655,30,7.215,30H19.787C24.42,30,27,27.39,27,22.745V7.245C27,2.67,24.42,0,19.787,0M9.952,25.647a.563.563,0,0,1-1.01.042l-.926-1.683a.625.625,0,0,0-.631-.3l-1.894.337a.569.569,0,0,1-.631-.8l2.819-5.934.169.632a2.252,2.252,0,0,0,2.188,1.767,1.913,1.913,0,0,0,.674-.126l.673-.21.462.547a2.072,2.072,0,0,0,.59.463Zm3.282-7.027L12.14,17.4a.428.428,0,0,0-.421-.126l-1.557.5a.4.4,0,0,1-.505-.3l-.336-1.6a.419.419,0,0,0-.3-.3l-1.6-.336a.4.4,0,0,1-.3-.505l.505-1.557a.381.381,0,0,0-.126-.421L6.29,11.676a.407.407,0,0,1,0-.589l1.221-1.1a.427.427,0,0,0,.126-.421L7.132,8.014a.4.4,0,0,1,.3-.5l1.6-.337a.418.418,0,0,0,.3-.3l.336-1.6a.4.4,0,0,1,.505-.295l1.557.5a.381.381,0,0,0,.421-.126l1.094-1.221a.407.407,0,0,1,.589,0l1.094,1.221a.428.428,0,0,0,.421.126l1.557-.5a.4.4,0,0,1,.5.295l.337,1.6a.418.418,0,0,0,.3.3l1.6.336a.4.4,0,0,1,.3.505l-.505,1.557a.381.381,0,0,0,.126.421l1.22,1.094a.406.406,0,0,1,0,.589l-1.22,1.094a.428.428,0,0,0-.126.421l.505,1.6a.4.4,0,0,1-.3.505l-1.6.337a.416.416,0,0,0-.3.294l-.336,1.6a.4.4,0,0,1-.5.294l-1.557-.505h0a.317.317,0,0,0-.422.084L13.823,18.62a.407.407,0,0,1-.589,0m8.291,5.428-1.894-.379a.625.625,0,0,0-.631.3l-.926,1.683a.563.563,0,0,1-1.01-.042l-2.483-5.26a2.054,2.054,0,0,0,.589-.463l.463-.5.716.168a1.9,1.9,0,0,0,.673.126A2.252,2.252,0,0,0,19.21,17.9l.127-.59,2.819,5.934a.579.579,0,0,1-.631.8" fill="#142d5d"/>
      </g>
    </g>
  </g>
</svg>
