<svg xmlns="http://www.w3.org/2000/svg" xmlns:xlink="http://www.w3.org/1999/xlink" width="60" height="60" viewBox="0 0 60 60">
  <defs>
    <clipPath id="clip-path">
      <rect id="Rectangle_296" data-name="Rectangle 296" width="34.914" height="30" fill="#142d5d"/>
    </clipPath>
  </defs>
  <g id="Group_206" data-name="Group 206" transform="translate(-234 -617)">
    <path id="Path_22" data-name="Path 22" d="M30,0A30,30,0,1,1,0,30,30,30,0,0,1,30,0Z" transform="translate(234 617)" fill="#dee3eb"/>
    <g id="Group_180" data-name="Group 180" transform="translate(247 632)">
      <g id="Group_179" data-name="Group 179" clip-path="url(#clip-path)">
        <path id="Path_316" data-name="Path 316" d="M34.009,14.025h-.082l-3.6-7.458a2.253,2.253,0,0,0-3.316-3.04l-1.258-.984A7.164,7.164,0,0,0,19.61,1.259l-.331.086h0a1.9,1.9,0,0,0-3.639,0l-.307-.086A7.165,7.165,0,0,0,9.2,2.543l-1.259.984h0a2.253,2.253,0,0,0-3.316,3.04L1.015,14.025H.933A.93.93,0,0,0,0,15.03a6.345,6.345,0,0,0,12.648,0,.929.929,0,0,0-.927-1.008h-.082L8.077,6.642,9.81,5.573a4.5,4.5,0,0,1,4.1-.282,4.843,4.843,0,0,0,1.562.3v2a3.25,3.25,0,0,0,0,5.141V24.267l-6.823,2.66a1.518,1.518,0,0,0-1.07,1.454v.093A1.526,1.526,0,0,0,9.1,30H25.838a1.526,1.526,0,0,0,1.526-1.526v-.093a1.516,1.516,0,0,0-1.07-1.451l-6.823-2.663V12.728a3.252,3.252,0,0,0,0-5.141v-2a4.9,4.9,0,0,0,1.565-.3,4.467,4.467,0,0,1,4.067.3l1.733,1.07-3.565,7.379h-.082a.931.931,0,0,0-.927,1.009,6.346,6.346,0,0,0,12.649,0,.931.931,0,0,0-.927-1.009Zm-25.311,0H3.978l2.353-4.88Zm17.575,0,2.353-4.88,2.353,4.88Z" fill="#142d5d"/>
      </g>
    </g>
  </g>
</svg>
