<svg xmlns="http://www.w3.org/2000/svg" xmlns:xlink="http://www.w3.org/1999/xlink" width="60" height="60" viewBox="0 0 60 60">
  <defs>
    <clipPath id="clip-path">
      <rect id="Rectangle_293" data-name="Rectangle 293" width="30" height="30" fill="#142d5d"/>
    </clipPath>
  </defs>
  <g id="Group_209" data-name="Group 209" transform="translate(-68 -788)">
    <path id="Path_24" data-name="Path 24" d="M30,0A30,30,0,1,1,0,30,30,30,0,0,1,30,0Z" transform="translate(68 788)" fill="#dee3eb"/>
    <g id="Group_174" data-name="Group 174" transform="translate(83 803)">
      <g id="Group_173" data-name="Group 173" clip-path="url(#clip-path)">
        <path id="Path_312" data-name="Path 312" d="M15,0A15,15,0,1,0,30,15,15,15,0,0,0,15,0m2.893,21.243a8.812,8.812,0,0,1-1.628,1.709,7.3,7.3,0,0,1-2.911,1.613c-3.28.764-3.561-.553-3-2.135.91-2.568,3.358-6.561,3.519-7.963a.389.389,0,0,0-.529-.45c-.756.2-1.885,1.7-2.562,1.4-.877-.392,2.409-4.3,5.848-4.025,3.632.29-.926,7.235-1.922,9.846-.272.711-.163,1.089.614.765a6.3,6.3,0,0,0,1.921-1.446.429.429,0,0,1,.634-.03.555.555,0,0,1,.017.718M17.386,9.618A2.31,2.31,0,0,1,15.367,7.1a2.309,2.309,0,0,1,2.019-2.516A2.309,2.309,0,0,1,19.4,7.1a2.31,2.31,0,0,1-2.018,2.517" fill="#142d5d"/>
      </g>
    </g>
  </g>
</svg>
