<svg xmlns="http://www.w3.org/2000/svg" xmlns:xlink="http://www.w3.org/1999/xlink" width="60" height="60" viewBox="0 0 60 60">
  <defs>
    <clipPath id="clip-path">
      <rect id="Rectangle_300" data-name="Rectangle 300" width="22.524" height="30" fill="#142d5d"/>
    </clipPath>
  </defs>
  <g id="Group_202" data-name="Group 202" transform="translate(-234 -130)">
    <path id="Path_27" data-name="Path 27" d="M30,0A30,30,0,1,1,0,30,30,30,0,0,1,30,0Z" transform="translate(234 130)" fill="#dee3eb"/>
    <g id="Group_182" data-name="Group 182" transform="translate(253 145)">
      <g id="Group_181" data-name="Group 181" clip-path="url(#clip-path)">
        <path id="Path_317" data-name="Path 317" d="M17.516,5.631h4.606a1.848,1.848,0,0,0-.149-.182l-4.9-4.9A1.855,1.855,0,0,0,16.891.4V5.006A.626.626,0,0,0,17.516,5.631Z" fill="#142d5d"/>
        <rect id="Rectangle_297" data-name="Rectangle 297" width="3.754" height="1.251" transform="translate(9.384 17.502)" fill="#142d5d"/>
        <rect id="Rectangle_298" data-name="Rectangle 298" width="3.754" height="1.251" transform="translate(9.384 23.132)" fill="#142d5d"/>
        <path id="Path_318" data-name="Path 318" d="M17.516,6.882a1.879,1.879,0,0,1-1.877-1.877V0H1.877A1.878,1.878,0,0,0,0,1.877V28.123A1.878,1.878,0,0,0,1.877,30h18.77a1.883,1.883,0,0,0,1.877-1.877V6.883ZM19.4,25.635H3.128V21.881H19.4ZM19.4,20H3.128V16.25H19.4Zm0-5.63H3.128V10.62H19.4Z" fill="#142d5d"/>
        <rect id="Rectangle_299" data-name="Rectangle 299" width="3.754" height="1.251" transform="translate(9.384 11.871)" fill="#142d5d"/>
      </g>
    </g>
  </g>
</svg>
