<svg xmlns="http://www.w3.org/2000/svg" xmlns:xlink="http://www.w3.org/1999/xlink" width="60" height="60" viewBox="0 0 60 60">
  <defs>
    <clipPath id="clip-path">
      <rect id="Rectangle_303" data-name="Rectangle 303" width="29.731" height="30" fill="#142d5d"/>
    </clipPath>
  </defs>
  <g id="Group_208" data-name="Group 208" transform="translate(-68 -960)">
    <path id="Path_321" data-name="Path 321" d="M30,0A30,30,0,1,1,0,30,30,30,0,0,1,30,0Z" transform="translate(68 960)" fill="#dee3eb"/>
    <g id="Group_191" data-name="Group 191" transform="translate(83 975)">
      <g id="Group_190" data-name="Group 190" clip-path="url(#clip-path)">
        <path id="Path_322" data-name="Path 322" d="M6.844,2.766c-.938,0-1.878.042-2.809.128A1.527,1.527,0,0,0,2.893,4.048a30.621,30.621,0,0,0,0,5.6,1.526,1.526,0,0,0,1.152,1.141,30.852,30.852,0,0,0,5.591,0A1.51,1.51,0,0,0,10.788,9.63a31.153,31.153,0,0,0,0-5.6A1.533,1.533,0,0,0,9.63,2.893C8.71,2.808,7.777,2.766,6.844,2.766ZM19.83,29.858a4.249,4.249,0,0,1-3.638-3.624,33.268,33.268,0,0,1,0-6.136,4.251,4.251,0,0,1,3.623-3.636,32.982,32.982,0,0,1,6.138,0,4.25,4.25,0,0,1,3.637,3.622,33.307,33.307,0,0,1,0,6.139,4.249,4.249,0,0,1-3.624,3.636c-1.031.1-2.052.142-3.076.142S20.845,29.953,19.83,29.858ZM6.841,13.68c-1.024,0-2.047-.046-3.062-.142A4.246,4.246,0,0,1,.143,9.916a33.189,33.189,0,0,1,0-6.138A4.25,4.25,0,0,1,3.762.142,33.2,33.2,0,0,1,9.9.142a4.251,4.251,0,0,1,3.637,3.622,33.613,33.613,0,0,1,0,6.138,4.254,4.254,0,0,1-3.625,3.637H9.9C8.886,13.635,7.864,13.68,6.841,13.68Zm16.05,0q-1.535,0-3.061-.142a4.245,4.245,0,0,1-3.637-3.623,33.4,33.4,0,0,1,0-6.138A4.256,4.256,0,0,1,19.813.142a33.189,33.189,0,0,1,6.138,0,4.251,4.251,0,0,1,3.637,3.622,33.2,33.2,0,0,1,0,6.139,4.254,4.254,0,0,1-3.625,3.636h-.014Q24.427,13.683,22.891,13.68ZM6.841,30q-1.535,0-3.062-.14A4.244,4.244,0,0,1,.143,26.234a33.164,33.164,0,0,1,0-6.136,4.248,4.248,0,0,1,3.622-3.636,33.1,33.1,0,0,1,6.139,0,4.248,4.248,0,0,1,3.637,3.62,33.639,33.639,0,0,1,0,6.14,4.249,4.249,0,0,1-3.625,3.635l-.014,0C8.886,29.953,7.864,30,6.841,30ZM22.894,2.766c-.936,0-1.877.042-2.807.128a1.505,1.505,0,0,0-1.144,1.157,30.8,30.8,0,0,0,0,5.6A1.527,1.527,0,0,0,20.1,10.788a30.826,30.826,0,0,0,5.588,0A1.509,1.509,0,0,0,26.838,9.63a30.689,30.689,0,0,0,0-5.6A1.5,1.5,0,0,0,25.68,2.893C24.76,2.808,23.829,2.766,22.894,2.766Zm0,16.319c-.936,0-1.877.042-2.807.13a1.509,1.509,0,0,0-1.144,1.156,30.8,30.8,0,0,0,0,5.6A1.527,1.527,0,0,0,20.1,27.107a30.37,30.37,0,0,0,5.586,0,1.509,1.509,0,0,0,1.151-1.156,30.715,30.715,0,0,0,0-5.6,1.5,1.5,0,0,0-1.154-1.139C24.76,19.127,23.829,19.085,22.894,19.085Zm-16.049,0c-.938,0-1.879.042-2.81.13a1.529,1.529,0,0,0-1.141,1.153,30.715,30.715,0,0,0,0,5.6A1.522,1.522,0,0,0,4.05,27.107a30.4,30.4,0,0,0,5.588,0,1.508,1.508,0,0,0,1.15-1.156,31.042,31.042,0,0,0,0-5.6,1.53,1.53,0,0,0-1.154-1.139C8.711,19.127,7.777,19.085,6.845,19.085Z" transform="translate(0 0)" fill="#142d5d" fill-rule="evenodd"/>
      </g>
    </g>
  </g>
</svg>
