<svg xmlns="http://www.w3.org/2000/svg" xmlns:xlink="http://www.w3.org/1999/xlink" width="60" height="60" viewBox="0 0 60 60">
  <defs>
    <clipPath id="clip-path">
      <rect id="Rectangle_295" data-name="Rectangle 295" width="29.864" height="30" fill="#142d5d"/>
    </clipPath>
  </defs>
  <g id="Group_205" data-name="Group 205" transform="translate(-68 -617)">
    <path id="Path_21" data-name="Path 21" d="M30,0A30,30,0,1,1,0,30,30,30,0,0,1,30,0Z" transform="translate(68 617)" fill="#dee3eb"/>
    <g id="Group_178" data-name="Group 178" transform="translate(83 632)">
      <g id="Group_177" data-name="Group 177" clip-path="url(#clip-path)">
        <path id="Path_315" data-name="Path 315" d="M4.565,6.2A2.283,2.283,0,1,1,2.282,3.913,2.285,2.285,0,0,1,4.565,6.2M8.8,3.913A2.282,2.282,0,1,0,11.087,6.2,2.285,2.285,0,0,0,8.8,3.913M20.543,5.87A1.63,1.63,0,1,0,22.174,7.5a1.632,1.632,0,0,0-1.631-1.63m7.031,1.16c0,7.253-6.4,11.59-6.672,11.772a.634.634,0,0,1-.717,0c-.274-.182-6.672-4.519-6.672-11.772a7.03,7.03,0,0,1,14.061,0Zm-4.1.47a2.935,2.935,0,1,0-2.935,2.935A2.939,2.939,0,0,0,23.478,7.5m6.375,20.322c-.063-.572-.122-1.142-.181-1.708-.442-4.267-.865-8.315-2.723-12.069a18.924,18.924,0,0,1-4.064,4.868h2.55a.653.653,0,0,1,0,1.305H16.924a3.255,3.255,0,0,0-2.694,1.421l-1.174,1.722a3.272,3.272,0,0,1-5.928-1.324L5.883,16.448a.655.655,0,1,1,1.278-.287l1.245,5.628a1.981,1.981,0,0,0,1.957,1.689,1.958,1.958,0,0,0,1.617-.854L13.154,20.9a4.572,4.572,0,0,1,3.77-1.989H18.2a17.622,17.622,0,0,1-5.368-7.826H5.217a.652.652,0,0,0-.525.265c-3.3,4.47-3.821,9.487-4.369,14.8q-.087.831-.177,1.672A1.959,1.959,0,0,0,2.093,30H27.906a1.959,1.959,0,0,0,1.947-2.178Z" fill="#142d5d"/>
      </g>
    </g>
  </g>
</svg>
