<svg xmlns="http://www.w3.org/2000/svg" xmlns:xlink="http://www.w3.org/1999/xlink" width="60" height="60" viewBox="0 0 60 60">
  <defs>
    <clipPath id="clip-path">
      <rect id="Rectangle_292" data-name="Rectangle 292" width="23.47" height="30" fill="#142d5d"/>
    </clipPath>
  </defs>
  <g id="Group_204" data-name="Group 204" transform="translate(-234 -301)">
    <path id="Path_20" data-name="Path 20" d="M30,0A30,30,0,1,1,0,30,30,30,0,0,1,30,0Z" transform="translate(234 301)" fill="#dee3eb"/>
    <g id="Group_172" data-name="Group 172" transform="translate(253 316)">
      <g id="Group_171" data-name="Group 171" clip-path="url(#clip-path)">
        <path id="Path_311" data-name="Path 311" d="M15.521,7.193c1.041-2.177,2.208-4.764,2.208-5.8a1.366,1.366,0,0,0-2.587-.6C13.88,2.555,13.344,0,11.861,0,10.41,0,9.653,2.4,8.518.789a1.494,1.494,0,0,0-2.776.6c0,1.388,1.1,3.88,2.145,5.9C4.354,10.063,0,15.237,0,19.937,0,26.782,5.268,30,11.735,30S23.47,26.782,23.47,19.937C23.47,15.2,19.085,9.968,15.521,7.193Zm-7.13,6.561a1.767,1.767,0,1,1-1.766,1.767,1.764,1.764,0,0,1,1.766-1.767m.473,9.432a1.083,1.083,0,0,1-.725.316.961.961,0,0,1-.726-.316,1.009,1.009,0,0,1,0-1.451l7.224-7.224a1.011,1.011,0,0,1,1.452,0,1.038,1.038,0,0,1,0,1.451Zm6.215.789a1.767,1.767,0,1,1,1.767-1.767,1.764,1.764,0,0,1-1.767,1.767" fill="#142d5d"/>
      </g>
    </g>
  </g>
</svg>
